<svg viewBox="0 0 512.000000 512.000000"
 preserveAspectRatio="xMidYMid meet">

<g transform="translate(0.000000,512.000000) scale(0.100000,-0.100000)"
fill="currentColor" stroke="none">
<path d="M1048 4464 c-189 -45 -348 -206 -393 -396 -11 -47 -15 -129 -15 -321
0 -224 2 -263 17 -287 32 -55 112 -67 160 -26 l28 24 5 279 5 278 28 60 c36
78 85 127 161 162 l61 28 271 5 c302 6 301 5 324 75 15 44 -7 98 -49 119 -41
22 -515 22 -603 0z"/>
<path d="M3464 4461 c-44 -27 -60 -77 -41 -124 28 -66 34 -67 302 -67 181 0
255 -4 298 -15 103 -27 167 -82 216 -185 26 -54 26 -60 31 -326 5 -248 7 -274
24 -293 30 -33 78 -45 119 -27 63 26 67 44 67 328 0 283 -8 339 -62 442 -41
78 -146 183 -224 224 -103 54 -159 62 -444 62 -234 0 -258 -2 -286 -19z"/>
<path d="M1739 3381 l-29 -29 0 -152 0 -152 29 -29 c48 -47 130 -37 164 21 25
41 25 279 0 320 -34 58 -116 68 -164 21z"/>
<path d="M2614 3399 c-11 -6 -28 -23 -37 -39 -15 -25 -17 -76 -17 -480 0 -541
9 -502 -127 -539 -53 -14 -83 -51 -83 -101 0 -77 69 -120 160 -101 104 22 186
85 231 177 l24 49 3 493 3 493 -30 29 c-23 23 -38 30 -68 29 -21 0 -47 -5 -59
-10z"/>
<path d="M3461 3394 c-39 -28 -51 -73 -51 -194 0 -157 28 -210 110 -210 82 0
110 53 110 210 0 157 -28 210 -110 210 -20 0 -46 -7 -59 -16z"/>
<path d="M1758 1903 c-32 -20 -48 -53 -48 -98 0 -26 13 -50 60 -108 156 -195
355 -332 565 -388 115 -32 335 -32 450 0 210 56 409 193 565 388 63 78 73 113
49 167 -17 36 -68 60 -112 52 -30 -6 -49 -22 -109 -92 -232 -276 -500 -381
-789 -308 -166 41 -310 144 -474 337 -43 50 -56 59 -90 63 -27 3 -49 -1 -67
-13z"/>
<path d="M703 1695 c-59 -25 -63 -46 -63 -327 0 -283 8 -339 62 -442 41 -78
146 -183 224 -224 103 -54 159 -62 442 -62 284 0 302 4 328 67 18 41 6 89 -27
119 -19 17 -45 19 -293 24 -267 5 -272 5 -327 31 -79 37 -131 88 -165 161
l-29 63 -5 271 c-5 297 -5 295 -67 321 -39 16 -40 16 -80 -2z"/>
<path d="M4335 1696 c-60 -26 -60 -25 -65 -320 l-5 -272 -33 -66 c-37 -76 -82
-120 -162 -157 -54 -26 -60 -26 -326 -31 -248 -5 -274 -7 -293 -24 -33 -30
-45 -78 -27 -119 26 -63 44 -67 328 -67 283 0 339 8 442 62 78 41 183 146 224
224 54 103 62 159 62 442 0 283 -4 302 -65 328 -41 17 -42 17 -80 0z"/>
</g>
</svg>
