<svg viewBox="0 0 80 80" fill="none" >
<path fill-rule="evenodd" clip-rule="evenodd" d="M40.5336 20.8H19.2003L20.7866 23.249H40.5336V20.8ZM40.5336 24.4734H24.8546L26.4408 26.9224H40.5336V24.4734ZM30.5088 28.1469H40.5336V30.596H32.0952L30.5088 28.1469ZM44.1363 20.8H41.6872V23.249V51.004H33.5341L36.4528 53.4531H41.6872H44.1363V51.004V23.249H63.8376L65.6168 20.8H44.1363ZM45.3608 57.1264H47.8099V54.6776V26.9224H61.1688L62.948 24.4735H47.8099H45.3608V26.9224V54.6776H37.912L40.8307 57.1264H45.3608ZM49.0341 60.8H45.2085L42.2899 58.3509H49.0341V30.596V28.1469H51.4832H60.2789L58.4997 30.596H51.4832V58.3509V60.8H49.0341Z" fill="currentColor"/>
</svg>
